<svg width="35" height="35" viewBox="0 0 35 35" fill="none" xmlns="http://www.w3.org/2000/svg">
<path d="M10 4.10866V18.5866C10 19.4713 10.7291 20.1952 11.6203 20.1952H14.8608V31.6971C14.8608 32.5175 15.9464 32.8071 16.3677 32.0993L24.7769 17.7822C24.9213 17.5388 24.9983 17.2618 25 16.9793C25.0016 16.6968 24.928 16.4188 24.7864 16.1737C24.6449 15.9287 24.4405 15.7251 24.1941 15.5838C23.9477 15.4425 23.668 15.3685 23.3835 15.3693H19.7217L23.7561 4.67169C23.8498 4.42926 23.8826 4.16784 23.8517 3.91001C23.8208 3.65218 23.7271 3.4057 23.5787 3.19188C23.4304 2.97806 23.2318 2.80332 23.0002 2.68277C22.7685 2.56223 22.5108 2.4995 22.2493 2.5H11.6203C10.7291 2.5 10 3.2239 10 4.10866Z" fill="white"/>
</svg>
