<svg width="35" height="34" viewBox="0 0 35 34" fill="none" xmlns="http://www.w3.org/2000/svg">
<path d="M24.5482 17.2742C24.6916 17.0377 24.768 16.7686 24.7697 16.4941C24.7713 16.2197 24.6982 15.9497 24.5576 15.7116C24.4171 15.4735 24.2141 15.2758 23.9694 15.1386C23.7247 15.0013 23.4469 14.9294 23.1643 14.9301H20.1553L23.8241 18.4931L24.5482 17.2742ZM24.8056 4.69447C25.3366 3.64746 24.5643 2.42856 23.3574 2.42856H11.4821C10.5971 2.42856 9.87301 3.13177 9.87301 3.99125V4.9445L19.7369 14.5238L24.8056 4.69447ZM28.2813 27.2442L5.23875 4.86636C5.08978 4.72169 4.91292 4.60692 4.71827 4.52862C4.52363 4.45032 4.31501 4.41002 4.10432 4.41002C3.89364 4.41002 3.68502 4.45032 3.49038 4.52862C3.29573 4.60692 3.11887 4.72169 2.9699 4.86636C2.82092 5.01104 2.70275 5.1828 2.62212 5.37183C2.5415 5.56086 2.5 5.76346 2.5 5.96806C2.5 6.17267 2.5415 6.37527 2.62212 6.5643C2.70275 6.75333 2.82092 6.92509 2.9699 7.06976L9.87301 13.7894V18.0555C9.87301 18.915 10.5971 19.6182 11.4821 19.6182H14.7004V30.7915C14.7004 31.5884 15.7785 31.8697 16.1968 31.1821L20.461 24.0719L25.9964 29.4476C26.6239 30.057 27.6377 30.057 28.2652 29.4476C28.9089 28.8381 28.9089 27.8536 28.2813 27.2442Z" fill="white"/>
</svg>
