<svg width="35" height="35" viewBox="0 0 35 35" fill="none" xmlns="http://www.w3.org/2000/svg">
<path d="M8.55556 29C7.85278 29 7.25095 28.7496 6.75006 28.2487C6.24917 27.7478 5.99915 27.1464 6 26.4444V8.55556C6 7.85278 6.25045 7.25095 6.75134 6.75006C7.25222 6.24917 7.85363 5.99915 8.55556 6H26.4444C27.1472 6 27.7491 6.25045 28.2499 6.75134C28.7508 7.25222 29.0009 7.85363 29 8.55556V26.4444C29 27.1472 28.7496 27.7491 28.2487 28.2499C27.7478 28.7508 27.1464 29.0009 26.4444 29H8.55556ZM11.1111 23.8889H23.8889C24.1444 23.8889 24.3361 23.7718 24.4639 23.5375C24.5917 23.3032 24.5704 23.0796 24.4 22.8667L20.8861 18.1708C20.7583 18.0005 20.588 17.9153 20.375 17.9153C20.162 17.9153 19.9917 18.0005 19.8639 18.1708L16.5417 22.6111L14.1778 19.4486C14.05 19.2782 13.8796 19.1931 13.6667 19.1931C13.4537 19.1931 13.2833 19.2782 13.1556 19.4486L10.6 22.8667C10.4296 23.0796 10.4083 23.3032 10.5361 23.5375C10.6639 23.7718 10.8556 23.8889 11.1111 23.8889Z" fill="#F5F5F5"/>
</svg>
